<svg width="48" height="48" viewBox="0 0 48 48" fill="none" xmlns="http://www.w3.org/2000/svg">
<mask id="mask0_810_13866" style="mask-type:alpha" maskUnits="userSpaceOnUse" x="0" y="0" width="48" height="48">
<rect width="48" height="48" fill="url(#paint0_linear_810_13866)"/>
</mask>
<g mask="url(#mask0_810_13866)">
<circle cx="24" cy="24" r="23.5" fill="#F9F5FF" stroke="#E9D7FE"/>
</g>
<rect x="8" y="8" width="32" height="32" rx="16" fill="#0148D4"/>
<path d="M27.3337 19.8333C27.3337 19.0584 27.3337 18.6709 27.2485 18.353C27.0173 17.4902 26.3434 16.8164 25.4807 16.5852C25.1628 16.5 24.7753 16.5 24.0003 16.5C23.2253 16.5 22.8379 16.5 22.5199 16.5852C21.6572 16.8164 20.9833 17.4902 20.7522 18.353C20.667 18.6709 20.667 19.0584 20.667 19.8333M18.3337 31.5H29.667C30.6004 31.5 31.0671 31.5 31.4236 31.3183C31.7372 31.1586 31.9922 30.9036 32.152 30.59C32.3337 30.2335 32.3337 29.7668 32.3337 28.8333V22.5C32.3337 21.5666 32.3337 21.0999 32.152 20.7433C31.9922 20.4297 31.7372 20.1748 31.4236 20.015C31.0671 19.8333 30.6004 19.8333 29.667 19.8333H18.3337C17.4002 19.8333 16.9335 19.8333 16.577 20.015C16.2634 20.1748 16.0084 20.4297 15.8486 20.7433C15.667 21.0999 15.667 21.5666 15.667 22.5V28.8333C15.667 29.7668 15.667 30.2335 15.8486 30.59C16.0084 30.9036 16.2634 31.1586 16.577 31.3183C16.9335 31.5 17.4002 31.5 18.3337 31.5Z" stroke="white" stroke-width="1.336" stroke-linecap="round" stroke-linejoin="round"/>
<defs>
<linearGradient id="paint0_linear_810_13866" x1="24" y1="0" x2="24" y2="48" gradientUnits="userSpaceOnUse">
<stop/>
<stop offset="1" stop-opacity="0"/>
</linearGradient>
</defs>
</svg>
