<svg width="48" height="48" viewBox="0 0 48 48" fill="none" xmlns="http://www.w3.org/2000/svg">
<mask id="mask0_886_18162" style="mask-type:alpha" maskUnits="userSpaceOnUse" x="0" y="0" width="48" height="48">
<rect width="48" height="48" fill="url(#paint0_linear_886_18162)"/>
</mask>
<g mask="url(#mask0_886_18162)">
<circle cx="24" cy="24" r="23.5" fill="#F9F5FF" stroke="#E9D7FE"/>
</g>
<rect x="8" y="8" width="32" height="32" rx="16" fill="#0148D4"/>
<path d="M20.9836 21.3778C21.5636 22.5858 22.3542 23.718 23.3555 24.7193C24.3568 25.7206 25.4891 26.5113 26.6971 27.0913C26.801 27.1412 26.8529 27.1661 26.9187 27.1853C27.1523 27.2534 27.4392 27.2045 27.637 27.0628C27.6927 27.0229 27.7403 26.9753 27.8356 26.88C28.1269 26.5887 28.2726 26.443 28.4191 26.3478C28.9715 25.9886 29.6837 25.9886 30.2361 26.3478C30.3825 26.443 30.5282 26.5887 30.8196 26.88L30.9819 27.0424C31.4248 27.4853 31.6462 27.7067 31.7665 27.9446C32.0058 28.4175 32.0058 28.9761 31.7665 29.449C31.6462 29.6869 31.4248 29.9083 30.9819 30.3512L30.8506 30.4825C30.4092 30.9239 30.1886 31.1446 29.8885 31.3131C29.5556 31.5001 29.0385 31.6346 28.6567 31.6334C28.3126 31.6324 28.0774 31.5657 27.607 31.4322C25.0792 30.7147 22.6939 29.361 20.7039 27.371C18.7139 25.381 17.3602 22.9957 16.6427 20.4679C16.5092 19.9975 16.4424 19.7623 16.4414 19.4182C16.4403 19.0363 16.5747 18.5193 16.7618 18.1863C16.9303 17.8863 17.151 17.6656 17.5923 17.2243L17.7237 17.0929C18.1666 16.65 18.388 16.4286 18.6258 16.3083C19.0988 16.0691 19.6573 16.0691 20.1303 16.3083C20.3681 16.4286 20.5896 16.65 21.0324 17.0929L21.1948 17.2553C21.4862 17.5466 21.6318 17.6923 21.7271 17.8388C22.0862 18.3912 22.0862 19.1034 21.7271 19.6558C21.6318 19.8022 21.4862 19.9479 21.1948 20.2393C21.0996 20.3345 21.0519 20.3821 21.0121 20.4378C20.8704 20.6357 20.8215 20.9226 20.8896 21.1562C20.9087 21.2219 20.9337 21.2739 20.9836 21.3778Z" stroke="white" stroke-width="1.336" stroke-linecap="round" stroke-linejoin="round"/>
<defs>
<linearGradient id="paint0_linear_886_18162" x1="24" y1="0" x2="24" y2="48" gradientUnits="userSpaceOnUse">
<stop/>
<stop offset="1" stop-opacity="0"/>
</linearGradient>
</defs>
</svg>
