<svg width="48" height="48" viewBox="0 0 48 48" fill="none" xmlns="http://www.w3.org/2000/svg">
<mask id="mask0_886_18128" style="mask-type:alpha" maskUnits="userSpaceOnUse" x="0" y="0" width="48" height="48">
<rect width="48" height="48" fill="url(#paint0_linear_886_18128)"/>
</mask>
<g mask="url(#mask0_886_18128)">
<circle cx="24" cy="24" r="23.5" fill="#F9F5FF" stroke="#E9D7FE"/>
</g>
<rect x="8" y="8" width="32" height="32" rx="16" fill="#0148D4"/>
<path d="M15.666 19.833L22.4701 24.5959C23.0211 24.9816 23.2966 25.1744 23.5962 25.2491C23.8609 25.3151 24.1378 25.3151 24.4025 25.2491C24.7021 25.1744 24.9776 24.9816 25.5286 24.5959L32.3327 19.833M19.666 30.6663H28.3327C29.7328 30.6663 30.4329 30.6663 30.9677 30.3939C31.4381 30.1542 31.8205 29.7717 32.0602 29.3013C32.3327 28.7665 32.3327 28.0665 32.3327 26.6663V21.333C32.3327 19.9329 32.3327 19.2328 32.0602 18.698C31.8205 18.2276 31.4381 17.8452 30.9677 17.6055C30.4329 17.333 29.7328 17.333 28.3327 17.333H19.666C18.2659 17.333 17.5658 17.333 17.031 17.6055C16.5606 17.8452 16.1782 18.2276 15.9385 18.698C15.666 19.2328 15.666 19.9329 15.666 21.333V26.6663C15.666 28.0665 15.666 28.7665 15.9385 29.3013C16.1782 29.7717 16.5606 30.1542 17.031 30.3939C17.5658 30.6663 18.2659 30.6663 19.666 30.6663Z" stroke="white" stroke-width="1.336" stroke-linecap="round" stroke-linejoin="round"/>
<defs>
<linearGradient id="paint0_linear_886_18128" x1="24" y1="0" x2="24" y2="48" gradientUnits="userSpaceOnUse">
<stop/>
<stop offset="1" stop-opacity="0"/>
</linearGradient>
</defs>
</svg>
