<svg width="48" height="48" viewBox="0 0 48 48" fill="none" xmlns="http://www.w3.org/2000/svg">
<mask id="mask0_556_2271" style="mask-type:alpha" maskUnits="userSpaceOnUse" x="0" y="0" width="48" height="48">
<rect width="48" height="48" fill="url(#paint0_linear_556_2271)"/>
</mask>
<g mask="url(#mask0_556_2271)">
<circle cx="24" cy="24" r="23.5" fill="#F9F5FF" stroke="#E9D7FE"/>
</g>
<rect x="8" y="8" width="32" height="32" rx="16" fill="#0148D4"/>
<path d="M17.3327 29.0001V28.8334C17.3327 27.4333 17.3327 26.7332 17.6052 26.1984C17.8448 25.728 18.2273 25.3456 18.6977 25.1059C19.2325 24.8334 19.9326 24.8334 21.3327 24.8334H26.666C28.0661 24.8334 28.7662 24.8334 29.301 25.1059C29.7714 25.3456 30.1538 25.728 30.3935 26.1984C30.666 26.7332 30.666 27.4333 30.666 28.8334V29.0001M17.3327 29.0001C16.4122 29.0001 15.666 29.7463 15.666 30.6667C15.666 31.5872 16.4122 32.3334 17.3327 32.3334C18.2532 32.3334 18.9993 31.5872 18.9993 30.6667C18.9993 29.7463 18.2532 29.0001 17.3327 29.0001ZM30.666 29.0001C29.7455 29.0001 28.9993 29.7463 28.9993 30.6667C28.9993 31.5872 29.7455 32.3334 30.666 32.3334C31.5865 32.3334 32.3327 31.5872 32.3327 30.6667C32.3327 29.7463 31.5865 29.0001 30.666 29.0001ZM23.9993 29.0001C23.0789 29.0001 22.3327 29.7463 22.3327 30.6667C22.3327 31.5872 23.0789 32.3334 23.9993 32.3334C24.9198 32.3334 25.666 31.5872 25.666 30.6667C25.666 29.7463 24.9198 29.0001 23.9993 29.0001ZM23.9993 29.0001V20.6667M18.9993 20.6667H28.9993C29.7759 20.6667 30.1642 20.6667 30.4705 20.5399C30.8789 20.3707 31.2033 20.0463 31.3725 19.6379C31.4993 19.3316 31.4993 18.9433 31.4993 18.1667C31.4993 17.3902 31.4993 17.0019 31.3725 16.6956C31.2033 16.2872 30.8789 15.9628 30.4705 15.7936C30.1642 15.6667 29.7759 15.6667 28.9993 15.6667H18.9993C18.2228 15.6667 17.8345 15.6667 17.5282 15.7936C17.1198 15.9628 16.7954 16.2872 16.6262 16.6956C16.4993 17.0019 16.4993 17.3902 16.4993 18.1667C16.4993 18.9433 16.4993 19.3316 16.6262 19.6379C16.7954 20.0463 17.1198 20.3707 17.5282 20.5399C17.8345 20.6667 18.2228 20.6667 18.9993 20.6667Z" stroke="white" stroke-width="1.336" stroke-linecap="round" stroke-linejoin="round"/>
<defs>
<linearGradient id="paint0_linear_556_2271" x1="24" y1="0" x2="24" y2="48" gradientUnits="userSpaceOnUse">
<stop/>
<stop offset="1" stop-opacity="0"/>
</linearGradient>
</defs>
</svg>
