<svg width="48" height="48" viewBox="0 0 48 48" fill="none" xmlns="http://www.w3.org/2000/svg">
<mask id="mask0_640_6855" style="mask-type:alpha" maskUnits="userSpaceOnUse" x="0" y="0" width="48" height="48">
<rect width="48" height="48" fill="url(#paint0_linear_640_6855)"/>
</mask>
<g mask="url(#mask0_640_6855)">
<circle cx="24" cy="24" r="23.5" fill="#F9F5FF" stroke="#E9D7FE"/>
</g>
<rect x="8" y="8" width="32" height="32" rx="16" fill="#0148D4"/>
<path d="M21.4993 28.5833H16.916M19.416 24H15.666M21.4993 19.4167H17.3327M28.166 16.5L22.669 24.1958C22.4257 24.5365 22.304 24.7068 22.3093 24.8488C22.3139 24.9724 22.3732 25.0876 22.4711 25.1632C22.5836 25.25 22.7929 25.25 23.2115 25.25H27.3327L26.4993 31.5L31.9964 23.8042C32.2397 23.4635 32.3613 23.2932 32.3561 23.1512C32.3515 23.0276 32.2922 22.9124 32.1943 22.8368C32.0818 22.75 31.8725 22.75 31.4539 22.75H27.3327L28.166 16.5Z" stroke="white" stroke-width="1.336" stroke-linecap="round" stroke-linejoin="round"/>
<defs>
<linearGradient id="paint0_linear_640_6855" x1="24" y1="0" x2="24" y2="48" gradientUnits="userSpaceOnUse">
<stop/>
<stop offset="1" stop-opacity="0"/>
</linearGradient>
</defs>
</svg>
