<svg width="48" height="48" viewBox="0 0 48 48" fill="none" xmlns="http://www.w3.org/2000/svg">
<mask id="mask0_992_24508" style="mask-type:alpha" maskUnits="userSpaceOnUse" x="0" y="0" width="48" height="48">
<rect width="48" height="48" fill="url(#paint0_linear_992_24508)"/>
</mask>
<g mask="url(#mask0_992_24508)">
<circle cx="24" cy="24" r="23.5" fill="#F9F5FF" stroke="#E9D7FE"/>
</g>
<rect x="8" y="8" width="32" height="32" rx="16" fill="#AB1BEE"/>
<path d="M21.7951 31.5C22.3828 32.0186 23.1546 32.3333 24 32.3333C24.8454 32.3333 25.6172 32.0186 26.2048 31.5M29 20.6667C29 19.3406 28.4732 18.0688 27.5355 17.1311C26.5978 16.1934 25.3261 15.6667 24 15.6667C22.6739 15.6667 21.4021 16.1934 20.4645 17.1311C19.5268 18.0688 19 19.3406 19 20.6667C19 23.2418 18.3504 25.005 17.6247 26.1712C17.0126 27.1549 16.7065 27.6467 16.7178 27.784C16.7302 27.9359 16.7624 27.9938 16.8848 28.0846C16.9954 28.1667 17.4938 28.1667 18.4907 28.1667H29.5093C30.5062 28.1667 31.0046 28.1667 31.1152 28.0846C31.2376 27.9938 31.2698 27.9359 31.2822 27.784C31.2934 27.6467 30.9874 27.1549 30.3753 26.1712C29.6496 25.005 29 23.2418 29 20.6667Z" stroke="white" stroke-width="1.336" stroke-linecap="round" stroke-linejoin="round"/>
<defs>
<linearGradient id="paint0_linear_992_24508" x1="24" y1="0" x2="24" y2="48" gradientUnits="userSpaceOnUse">
<stop/>
<stop offset="1" stop-opacity="0"/>
</linearGradient>
</defs>
</svg>
