<svg width="48" height="48" viewBox="0 0 48 48" fill="none" xmlns="http://www.w3.org/2000/svg">
<mask id="mask0_886_18145" style="mask-type:alpha" maskUnits="userSpaceOnUse" x="0" y="0" width="48" height="48">
<rect width="48" height="48" fill="url(#paint0_linear_886_18145)"/>
</mask>
<g mask="url(#mask0_886_18145)">
<circle cx="24" cy="24" r="23.5" fill="#F9F5FF" stroke="#E9D7FE"/>
</g>
<rect x="8" y="8" width="32" height="32" rx="16" fill="#0148D4"/>
<path d="M24.0007 24.417C25.3814 24.417 26.5007 23.2977 26.5007 21.917C26.5007 20.5363 25.3814 19.417 24.0007 19.417C22.6199 19.417 21.5007 20.5363 21.5007 21.917C21.5007 23.2977 22.6199 24.417 24.0007 24.417Z" stroke="white" stroke-width="1.336" stroke-linecap="round" stroke-linejoin="round"/>
<path d="M24.0007 32.3337C25.6673 29.0003 30.6673 26.8489 30.6673 22.3337C30.6673 18.6518 27.6825 15.667 24.0007 15.667C20.3188 15.667 17.334 18.6518 17.334 22.3337C17.334 26.8489 22.334 29.0003 24.0007 32.3337Z" stroke="white" stroke-width="1.336" stroke-linecap="round" stroke-linejoin="round"/>
<defs>
<linearGradient id="paint0_linear_886_18145" x1="24" y1="0" x2="24" y2="48" gradientUnits="userSpaceOnUse">
<stop/>
<stop offset="1" stop-opacity="0"/>
</linearGradient>
</defs>
</svg>
