<svg width="532" height="728" viewBox="0 0 532 728" fill="none" xmlns="http://www.w3.org/2000/svg">
<path fill-rule="evenodd" clip-rule="evenodd" d="M182.034 551.973C74.9901 519.05 1.32278 420.128 0.0121784 307.69C-1.15817 207.285 82.1936 133.524 176.777 101.009C260.07 72.3766 346.327 103.198 406.143 168.078C484.913 253.518 571.343 364.928 512.702 465.379C449.003 574.495 302.448 589.009 182.034 551.973Z" fill="#AB1BEE"/>
<g filter="url(#filter0_dd_550_6880)">
<rect x="112.004" y="21.0332" width="307.981" height="636.995" rx="51.0798" fill="black"/>
</g>
<g clip-path="url(#clip0_550_6880)">
<rect width="281.69" height="609.953" transform="translate(124.775 34.5547)" fill="white"/>
<path opacity="0.35" d="M379.171 47.9502H391.69C392.589 47.9502 393.318 48.6784 393.318 49.5771V54.084C393.318 54.9829 392.589 55.7119 391.69 55.7119H379.171C378.272 55.7118 377.544 54.9828 377.544 54.084V49.5771C377.544 48.6784 378.272 47.9503 379.171 47.9502Z" stroke="black" stroke-width="0.751174"/>
<path opacity="0.4" d="M394.445 50.3281V53.3328C395.05 53.0783 395.443 52.4863 395.443 51.8305C395.443 51.1746 395.05 50.5826 394.445 50.3281" fill="black"/>
<path d="M378.67 50.0777C378.67 49.5246 379.118 49.0762 379.671 49.0762H391.189C391.743 49.0762 392.191 49.5246 392.191 50.0777V53.5832C392.191 54.1364 391.743 54.5848 391.189 54.5848H379.671C379.118 54.5848 378.67 54.1364 378.67 53.5832V50.0777Z" fill="black"/>
<path d="M365.992 53.8831C366.95 53.0727 368.354 53.0727 369.313 53.8831C369.361 53.9267 369.388 53.9882 369.39 54.0531C369.391 54.1179 369.366 54.1804 369.319 54.2259L367.819 55.7406C367.775 55.785 367.715 55.8099 367.652 55.8099C367.59 55.8099 367.53 55.7848 367.486 55.7406L365.985 54.2259C365.939 54.1804 365.914 54.1179 365.915 54.0531C365.916 53.9883 365.944 53.9267 365.992 53.8831ZM363.99 51.8626C366.055 49.9423 369.252 49.9423 371.316 51.8626C371.363 51.9077 371.389 51.9697 371.39 52.0345C371.39 52.0993 371.365 52.1614 371.319 52.2074L370.452 53.0843C370.363 53.1735 370.219 53.1752 370.127 53.0882C369.449 52.4743 368.567 52.1341 367.652 52.1341C366.738 52.1345 365.857 52.4748 365.18 53.0882C365.088 53.1752 364.944 53.1735 364.854 53.0843L363.987 52.2074C363.942 52.1615 363.916 52.0993 363.917 52.0345C363.918 51.9697 363.944 51.9077 363.99 51.8626ZM361.988 49.848C365.155 46.8137 370.15 46.8136 373.316 49.848C373.362 49.893 373.388 49.9547 373.389 50.0189C373.389 50.083 373.364 50.1452 373.318 50.1908L372.449 51.0677C372.36 51.1572 372.215 51.1581 372.124 51.0697C370.918 49.9229 369.317 49.2836 367.652 49.2835C365.988 49.2835 364.387 49.9229 363.181 51.0697C363.09 51.1583 362.944 51.1577 362.854 51.0677L361.986 50.1908C361.941 50.1451 361.916 50.0832 361.916 50.0189C361.917 49.9547 361.942 49.893 361.988 49.848Z" fill="black"/>
<path d="M346.871 52.833C347.286 52.833 347.623 53.1692 347.623 53.584V55.0869C347.623 55.5016 347.286 55.8379 346.871 55.8379H346.12C345.705 55.8378 345.369 55.5015 345.369 55.0869V53.584C345.369 53.1693 345.705 52.8331 346.12 52.833H346.871ZM350.377 51.3311C350.792 51.3311 351.128 51.6672 351.128 52.082V55.0869C351.128 55.5016 350.792 55.8379 350.377 55.8379H349.626C349.211 55.8379 348.875 55.5016 348.875 55.0869V52.082C348.875 51.6672 349.211 51.3311 349.626 51.3311H350.377ZM353.883 49.5781C354.298 49.5783 354.634 49.9144 354.634 50.3291V55.0869C354.634 55.5015 354.297 55.8377 353.883 55.8379H353.131C352.716 55.8377 352.38 55.5015 352.38 55.0869V50.3291C352.38 49.9144 352.716 49.5783 353.131 49.5781H353.883ZM357.388 47.8252C357.802 47.8252 358.139 48.1614 358.139 48.5762V55.0869C358.138 55.5016 357.802 55.8379 357.388 55.8379H356.637C356.222 55.8379 355.886 55.5016 355.886 55.0869V48.5762C355.886 48.1614 356.222 47.8252 356.637 47.8252H357.388Z" fill="black"/>
<path d="M152.809 55.7799C154.828 55.7799 156.028 54.2009 156.028 51.527C156.028 50.5202 155.835 49.6729 155.467 49.0182C154.933 48.0004 154.014 47.4502 152.853 47.4502C151.126 47.4502 149.904 48.6111 149.904 50.2396C149.904 51.7691 151.005 52.8804 152.518 52.8804C153.447 52.8804 154.201 52.4458 154.575 51.6921H154.592C154.592 51.6921 154.614 51.6921 154.619 51.6921C154.63 51.6921 154.669 51.6921 154.669 51.6921C154.669 53.5076 153.981 54.5915 152.82 54.5915C152.138 54.5915 151.61 54.2174 151.428 53.6177H150.014C150.251 54.9216 151.357 55.7799 152.809 55.7799ZM152.859 51.7526C151.945 51.7526 151.296 51.1034 151.296 50.1956C151.296 49.3098 151.978 48.6331 152.864 48.6331C153.75 48.6331 154.432 49.3208 154.432 50.2176C154.432 51.1034 153.767 51.7526 152.859 51.7526Z" fill="black"/>
<path d="M158.35 55.7028C158.872 55.7028 159.23 55.3287 159.23 54.8336C159.23 54.3329 158.872 53.9643 158.35 53.9643C157.833 53.9643 157.469 54.3329 157.469 54.8336C157.469 55.3287 157.833 55.7028 158.35 55.7028ZM158.35 51.5765C158.872 51.5765 159.23 51.2079 159.23 50.7127C159.23 50.2121 158.872 49.8435 158.35 49.8435C157.833 49.8435 157.469 50.2121 157.469 50.7127C157.469 51.2079 157.833 51.5765 158.35 51.5765Z" fill="black"/>
<path d="M164.38 55.5873H165.739V54.1073H166.812V52.9079H165.739V47.6483H163.736C162.333 49.7609 161.216 51.527 160.501 52.8419V54.1073H164.38V55.5873ZM161.816 52.8584C162.74 51.2299 163.566 49.926 164.325 48.8036H164.402V52.941H161.816V52.8584Z" fill="black"/>
<path d="M169.838 55.5873H171.257V47.6483H169.843L167.769 49.1007V50.4652L169.744 49.0787H169.838V55.5873Z" fill="black"/>
<rect x="215.668" y="635.202" width="100.657" height="3.75587" rx="1.87793" fill="black"/>
</g>
<path d="M417.293 183.999H418.405C419.019 183.999 419.516 184.499 419.516 185.115V258.044C419.516 258.66 419.019 259.16 418.405 259.16H417.293V183.999Z" fill="#303030"/>
<path d="M108.223 274.788L107.111 274.788C106.497 274.788 105.999 274.288 105.999 273.672L105.999 229.766C105.999 229.149 106.497 228.649 107.111 228.649L108.223 228.649L108.223 274.788Z" fill="#303030"/>
<path d="M108.223 213.767L107.111 213.767C106.497 213.767 105.999 213.267 105.999 212.65L105.999 168.744C105.999 168.128 106.497 167.628 107.111 167.628L108.223 167.628L108.223 213.767Z" fill="#333333"/>
<path d="M108.223 145.303L107.111 145.303C106.497 145.303 105.999 144.803 105.999 144.186L105.999 122.606C105.999 121.989 106.497 121.489 107.111 121.489L108.223 121.489L108.223 145.303Z" fill="#333333"/>
<path fill-rule="evenodd" clip-rule="evenodd" d="M110.581 53.7058C108.223 60.992 108.223 69.9953 108.223 88.0017V591.06C108.223 609.067 108.223 618.07 110.581 625.356C115.346 640.082 126.845 651.628 141.512 656.412C148.769 658.78 157.736 658.78 175.67 658.78H349.846C367.78 658.78 376.747 658.78 384.004 656.412C398.671 651.628 410.17 640.082 414.936 625.356C417.294 618.07 417.294 609.067 417.294 591.06V88.0017C417.294 69.9953 417.294 60.992 414.936 53.7058C410.17 38.9798 398.671 27.4344 384.004 22.6497C376.747 20.2822 367.78 20.2822 349.846 20.2822H175.67C157.736 20.2822 148.769 20.2822 141.512 22.6497C126.845 27.4344 115.346 38.9798 110.581 53.7058ZM186.788 38.5144V41.8632L186.841 41.8615L186.788 42.2352C186.788 51.0716 193.922 58.2349 202.723 58.2349H322.794C331.595 58.2349 338.729 51.0716 338.729 42.2352L338.676 41.8615L338.729 41.8632V38.5144C338.729 36.2539 340.554 34.4215 342.805 34.4215L352.352 34.4214C367.276 34.4214 374.738 34.4214 380.69 36.6794C390.044 40.2283 397.428 47.6423 400.963 57.0343C403.212 63.0097 403.212 70.5019 403.212 85.4864V593.576C403.212 608.56 403.212 616.052 400.963 622.028C397.428 631.42 390.044 638.834 380.69 642.383C374.738 644.641 367.276 644.641 352.352 644.641H173.165C158.241 644.641 150.779 644.641 144.827 642.383C135.473 638.834 128.089 631.42 124.554 622.028C122.305 616.052 122.305 608.56 122.305 593.576V85.4864C122.305 70.5019 122.305 63.0097 124.554 57.0343C128.089 47.6423 135.473 40.2283 144.827 36.6794C150.779 34.4214 158.241 34.4214 173.165 34.4214L182.712 34.4215C184.963 34.4215 186.788 36.2539 186.788 38.5144Z" fill="#333333"/>
<path fill-rule="evenodd" clip-rule="evenodd" d="M350.144 21.7705H175.374C157.659 21.7705 148.976 21.7797 141.971 24.0651C127.755 28.7027 116.61 39.8928 111.991 54.1657C109.715 61.1995 109.706 69.9166 109.706 87.7039V591.358C109.706 609.145 109.715 617.863 111.991 624.896C116.61 639.169 127.755 650.359 141.971 654.997C148.976 657.282 157.659 657.291 175.374 657.291H350.144C367.86 657.291 376.542 657.282 383.547 654.997C397.763 650.359 408.908 639.169 413.527 624.896C415.803 617.863 415.812 609.145 415.812 591.358V87.704C415.812 69.9167 415.803 61.1995 413.527 54.1657C408.908 39.8928 397.763 28.7027 383.547 24.0651C376.542 21.7797 367.86 21.7705 350.144 21.7705ZM111.286 53.9357C108.965 61.1099 108.965 69.9746 108.965 87.7039V591.358C108.965 609.087 108.965 617.952 111.286 625.126C115.979 639.626 127.301 650.993 141.742 655.705C148.887 658.036 157.716 658.036 175.374 658.036H350.144C367.802 658.036 376.631 658.036 383.777 655.705C398.218 650.993 409.54 639.626 414.232 625.126C416.554 617.952 416.554 609.087 416.554 591.358V87.704C416.554 69.9746 416.554 61.1099 414.232 53.9357C409.54 39.4363 398.218 28.0685 383.777 23.3574C376.631 21.0264 367.802 21.0264 350.144 21.0264H175.374C157.716 21.0264 148.887 21.0264 141.742 23.3574C127.301 28.0685 115.979 39.4363 111.286 53.9357Z" fill="#303030"/>
<path fill-rule="evenodd" clip-rule="evenodd" d="M114.106 54.8554C111.93 61.5812 111.93 69.8919 111.93 86.5132V592.549C111.93 609.17 111.93 617.481 114.106 624.206C118.505 637.8 129.12 648.457 142.658 652.873C149.357 655.059 157.634 655.059 174.189 655.059H351.33C367.885 655.059 376.162 655.059 382.86 652.873C396.399 648.457 407.013 637.8 411.412 624.206C413.589 617.481 413.589 609.17 413.589 592.549V86.5132C413.589 69.8919 413.589 61.5812 411.412 54.8554C407.013 41.2622 396.399 30.605 382.86 26.1883C376.162 24.0029 367.885 24.0029 351.33 24.0029H174.189C157.634 24.0029 149.357 24.0029 142.658 26.1883C129.12 30.605 118.505 41.2622 114.106 54.8554ZM186.788 38.5142V41.863L186.841 41.8613L186.788 42.2351C186.788 51.0714 193.923 58.2347 202.723 58.2347H322.794C331.595 58.2347 338.73 51.0714 338.73 42.2351L338.676 41.8613L338.729 41.863V38.5142C338.729 36.2538 340.554 34.4213 342.806 34.4213L352.352 34.4213C367.277 34.4213 374.739 34.4213 380.69 36.6792C390.044 40.2281 397.428 47.6421 400.963 57.0341C403.212 63.0095 403.212 70.5017 403.212 85.4862V593.576C403.212 608.56 403.212 616.052 400.963 622.028C397.428 631.42 390.044 638.834 380.69 642.383C374.739 644.64 367.277 644.64 352.352 644.64H173.165C158.241 644.64 150.779 644.64 144.828 642.383C135.473 638.834 128.089 631.42 124.554 622.028C122.306 616.052 122.306 608.56 122.306 593.576V85.4862C122.306 70.5017 122.306 63.0095 124.554 57.0341C128.089 47.6421 135.473 40.2281 144.828 36.6792C150.779 34.4213 158.241 34.4213 173.165 34.4213L182.712 34.4213C184.963 34.4213 186.788 36.2538 186.788 38.5142Z" fill="#121515"/>
<rect x="351.328" y="20.2822" width="4.44705" height="3.72085" fill="#414141"/>
<rect x="413.588" y="84.2812" width="3.70594" height="4.46502" fill="#414141"/>
<rect x="108.223" y="84.2812" width="3.70589" height="4.46502" fill="#414141"/>
<rect x="108.223" y="590.316" width="3.70589" height="4.465" fill="#414141"/>
<rect x="413.588" y="590.316" width="3.70594" height="4.465" fill="#414141"/>
<rect x="169.74" y="655.059" width="4.44707" height="3.72084" fill="#414141"/>
<path fill-rule="evenodd" clip-rule="evenodd" d="M294.259 50.0493C297.534 50.0493 300.189 47.3839 300.189 44.0959C300.189 40.808 297.534 38.1426 294.259 38.1426C290.985 38.1426 288.33 40.808 288.33 44.0959C288.33 47.3839 290.985 50.0493 294.259 50.0493Z" fill="#262C2D"/>
<path fill-rule="evenodd" clip-rule="evenodd" d="M294.259 47.8167C296.305 47.8167 297.965 46.1508 297.965 44.0958C297.965 42.0409 296.305 40.375 294.259 40.375C292.212 40.375 290.553 42.0409 290.553 44.0958C290.553 46.1508 292.212 47.8167 294.259 47.8167Z" fill="#121515"/>
<path opacity="0.4" fill-rule="evenodd" clip-rule="evenodd" d="M294.259 43.3523C294.669 43.3523 295.001 43.019 295.001 42.6078C295.001 42.1966 294.669 41.8633 294.259 41.8633C293.85 41.8633 293.518 42.1966 293.518 42.6078C293.518 43.019 293.85 43.3523 294.259 43.3523Z" fill="#636F73"/>
<path fill-rule="evenodd" clip-rule="evenodd" d="M244.6 44.0958C244.6 42.8628 245.599 41.8633 246.832 41.8633H278.685C279.918 41.8633 280.917 42.8628 280.917 44.0958C280.917 45.3288 279.918 46.3283 278.685 46.3283H246.832C245.599 46.3283 244.6 45.3288 244.6 44.0958Z" fill="#262C2D"/>
<defs>
<filter id="filter0_dd_550_6880" x="90.971" y="0.000340223" width="398.121" height="727.136" filterUnits="userSpaceOnUse" color-interpolation-filters="sRGB">
<feFlood flood-opacity="0" result="BackgroundImageFix"/>
<feColorMatrix in="SourceAlpha" type="matrix" values="0 0 0 0 0 0 0 0 0 0 0 0 0 0 0 0 0 0 127 0" result="hardAlpha"/>
<feMorphology radius="1.50235" operator="erode" in="SourceAlpha" result="effect1_dropShadow_550_6880"/>
<feOffset dx="12.0188" dy="12.0188"/>
<feGaussianBlur stdDeviation="12.0188"/>
<feColorMatrix type="matrix" values="0 0 0 0 0.0392157 0 0 0 0 0.0496732 0 0 0 0 0.0705882 0 0 0 0.08 0"/>
<feBlend mode="normal" in2="BackgroundImageFix" result="effect1_dropShadow_550_6880"/>
<feColorMatrix in="SourceAlpha" type="matrix" values="0 0 0 0 0 0 0 0 0 0 0 0 0 0 0 0 0 0 127 0" result="hardAlpha"/>
<feMorphology radius="3.00469" operator="erode" in="SourceAlpha" result="effect2_dropShadow_550_6880"/>
<feOffset dx="24.0376" dy="24.0376"/>
<feGaussianBlur stdDeviation="24.0376"/>
<feColorMatrix type="matrix" values="0 0 0 0 0.0392157 0 0 0 0 0.0496732 0 0 0 0 0.0705882 0 0 0 0.2 0"/>
<feBlend mode="normal" in2="effect1_dropShadow_550_6880" result="effect2_dropShadow_550_6880"/>
<feBlend mode="normal" in="SourceGraphic" in2="effect2_dropShadow_550_6880" result="shape"/>
</filter>
<clipPath id="clip0_550_6880">
<rect width="281.69" height="609.953" fill="white" transform="translate(124.775 34.5547)"/>
</clipPath>
</defs>
</svg>
