<svg width="48" height="48" viewBox="0 0 48 48" fill="none" xmlns="http://www.w3.org/2000/svg">
<mask id="mask0_640_6844" style="mask-type:alpha" maskUnits="userSpaceOnUse" x="0" y="0" width="48" height="48">
<rect width="48" height="48" fill="url(#paint0_linear_640_6844)"/>
</mask>
<g mask="url(#mask0_640_6844)">
<circle cx="24" cy="24" r="23.5" fill="#F9F5FF" stroke="#E9D7FE"/>
</g>
<rect x="8" y="8" width="32" height="32" rx="16" fill="#0148D4"/>
<path d="M21.5007 23.5834L23.1673 25.2501L26.9173 21.5001M30.6673 24.0001C30.6673 28.0904 26.2057 31.0654 24.5823 32.0125C24.3978 32.1201 24.3056 32.1739 24.1754 32.2018C24.0744 32.2235 23.9269 32.2235 23.8259 32.2018C23.6957 32.1739 23.6035 32.1201 23.419 32.0125C21.7956 31.0654 17.334 28.0904 17.334 24.0001V20.0147C17.334 19.3485 17.334 19.0153 17.443 18.729C17.5392 18.476 17.6956 18.2503 17.8987 18.0713C18.1286 17.8688 18.4405 17.7518 19.0643 17.5178L23.5325 15.8423C23.7057 15.7773 23.7924 15.7448 23.8815 15.732C23.9605 15.7205 24.0408 15.7205 24.1198 15.732C24.2089 15.7448 24.2956 15.7773 24.4688 15.8423L28.937 17.5178C29.5608 17.7518 29.8727 17.8688 30.1026 18.0713C30.3057 18.2503 30.4621 18.476 30.5584 18.729C30.6673 19.0153 30.6673 19.3485 30.6673 20.0147V24.0001Z" stroke="white" stroke-width="1.336" stroke-linecap="round" stroke-linejoin="round"/>
<defs>
<linearGradient id="paint0_linear_640_6844" x1="24" y1="0" x2="24" y2="48" gradientUnits="userSpaceOnUse">
<stop/>
<stop offset="1" stop-opacity="0"/>
</linearGradient>
</defs>
</svg>
