<svg width="48" height="48" viewBox="0 0 48 48" fill="none" xmlns="http://www.w3.org/2000/svg">
<mask id="mask0_640_6896" style="mask-type:alpha" maskUnits="userSpaceOnUse" x="0" y="0" width="48" height="48">
<rect width="48" height="48" fill="url(#paint0_linear_640_6896)"/>
</mask>
<g mask="url(#mask0_640_6896)">
<circle cx="24" cy="24" r="23.5" fill="#F9F5FF" stroke="#E9D7FE"/>
</g>
<rect x="8" y="8" width="32" height="32" rx="16" fill="#0148D4"/>
<path d="M23.9993 28.5834H24.0077M20.8327 32.3334H27.166C28.0994 32.3334 28.5661 32.3334 28.9227 32.1518C29.2363 31.992 29.4912 31.737 29.651 31.4234C29.8327 31.0669 29.8327 30.6002 29.8327 29.6667V18.3334C29.8327 17.4 29.8327 16.9333 29.651 16.5768C29.4912 16.2632 29.2363 16.0082 28.9227 15.8484C28.5661 15.6667 28.0994 15.6667 27.166 15.6667H20.8327C19.8993 15.6667 19.4326 15.6667 19.076 15.8484C18.7624 16.0082 18.5075 16.2632 18.3477 16.5768C18.166 16.9333 18.166 17.4 18.166 18.3334V29.6667C18.166 30.6002 18.166 31.0669 18.3477 31.4234C18.5075 31.737 18.7624 31.992 19.076 32.1518C19.4326 32.3334 19.8993 32.3334 20.8327 32.3334ZM24.416 28.5834C24.416 28.8135 24.2295 29.0001 23.9993 29.0001C23.7692 29.0001 23.5827 28.8135 23.5827 28.5834C23.5827 28.3533 23.7692 28.1667 23.9993 28.1667C24.2295 28.1667 24.416 28.3533 24.416 28.5834Z" stroke="white" stroke-width="1.336" stroke-linecap="round" stroke-linejoin="round"/>
<defs>
<linearGradient id="paint0_linear_640_6896" x1="24" y1="0" x2="24" y2="48" gradientUnits="userSpaceOnUse">
<stop/>
<stop offset="1" stop-opacity="0"/>
</linearGradient>
</defs>
</svg>
