<svg width="96" height="100" viewBox="0 0 96 100" fill="none" xmlns="http://www.w3.org/2000/svg">
<path d="M74.9246 35.375H21.2746C18.0714 35.375 15.4746 37.9718 15.4746 41.175V73.075C15.4746 76.2783 18.0714 78.875 21.2746 78.875H74.9246C78.1279 78.875 80.7246 76.2783 80.7246 73.075V41.175C80.7246 37.9718 78.1279 35.375 74.9246 35.375Z" fill="white"/>
<path d="M15.4746 41.175C15.4746 37.9717 18.0713 35.375 21.2746 35.375H74.9246C78.1279 35.375 80.7246 37.9717 80.7246 41.175V46.25L48.0996 64.375L15.4746 46.25V41.175Z" fill="#0041D4"/>
<path d="M80.2246 72.2488L80.2266 72.2673C80.5067 75.9092 77.8919 78.3746 74.9854 78.3748H74.9824L20.9111 78.6765C18.2228 78.6759 15.9746 76.1217 15.9746 73.1355V49.5164L47.8564 67.2292L48.0996 67.364L48.3428 67.2292L80.2246 49.5164V72.2488Z" fill="white" stroke="#C4CEE3"/>
<path d="M77.0994 40.4498C81.9044 40.4498 85.7994 36.5547 85.7994 31.7498C85.7994 26.9449 81.9044 23.0498 77.0994 23.0498C72.2945 23.0498 68.3994 26.9449 68.3994 31.7498C68.3994 36.5547 72.2945 40.4498 77.0994 40.4498Z" fill="#AB1BEE"/>
<path d="M74.2002 31.7497L76.3752 33.9247L80.0002 29.5747" stroke="white" stroke-width="1.8125" stroke-linecap="round" stroke-linejoin="round"/>
</svg>
