<svg width="99" height="100" viewBox="0 0 99 100" fill="none" xmlns="http://www.w3.org/2000/svg">
<path d="M81.6 4H14.4C6.4471 4 0 10.4471 0 18.4V85.6C0 93.5529 6.4471 100 14.4 100H81.6C89.5529 100 96 93.5529 96 85.6V18.4C96 10.4471 89.5529 4 81.6 4Z" fill="white"/>
<path d="M47.9996 66.3996C62.5799 66.3996 74.3996 54.5799 74.3996 39.9996C74.3996 25.4193 62.5799 13.5996 47.9996 13.5996C33.4193 13.5996 21.5996 25.4193 21.5996 39.9996C21.5996 54.5799 33.4193 66.3996 47.9996 66.3996Z" stroke="#EFEFEF" stroke-width="7"/>
<path d="M48 13.5998C52.7523 13.5836 57.4208 14.8505 61.513 17.2669C65.6052 19.6832 68.9692 23.1594 71.2502 27.3285C73.5311 31.4977 74.6444 36.2052 74.4725 40.9544C74.3006 45.7036 72.85 50.3184 70.2736 54.3118C67.6972 58.3051 64.0907 61.529 59.8346 63.6432C55.5785 65.7574 50.8305 66.6836 46.0918 66.3239C41.3532 65.9643 36.7994 64.3321 32.9111 61.5998C29.0228 58.8675 25.9442 55.1362 24 50.7998" stroke="#AB1BEE" stroke-width="7" stroke-linecap="round"/>
<path d="M42.3036 33.3297C42.8874 33.334 43.4627 33.4405 44.0295 33.6493C44.5962 33.8581 45.1076 34.199 45.5636 34.6721C46.0238 35.1451 46.3903 35.7843 46.663 36.5897C46.94 37.3908 47.0806 38.388 47.0849 39.5811C47.0849 40.7275 46.9698 41.748 46.7397 42.6429C46.5096 43.5336 46.1793 44.2857 45.7489 44.8993C45.3228 45.513 44.805 45.9796 44.1957 46.2992C43.5863 46.6188 42.9002 46.7786 42.1374 46.7786C41.3576 46.7786 40.6651 46.6252 40.06 46.3184C39.4549 46.0115 38.9627 45.5875 38.5835 45.0463C38.2042 44.5009 37.9677 43.8745 37.8739 43.1671H39.8235C39.9513 43.7296 40.2113 44.1855 40.6033 44.535C40.9996 44.8801 41.511 45.0527 42.1374 45.0527C43.0962 45.0527 43.8441 44.6351 44.381 43.7999C44.918 42.9604 45.1886 41.7885 45.1928 40.2843H45.0906C44.869 40.6507 44.592 40.9661 44.2596 41.2303C43.9315 41.4945 43.5629 41.699 43.1538 41.8439C42.7447 41.9888 42.3079 42.0613 41.8434 42.0613C41.0891 42.0613 40.4031 41.8759 39.7852 41.5051C39.1673 41.1344 38.6751 40.6252 38.3086 39.9774C37.9421 39.3297 37.7589 38.5904 37.7589 37.7594C37.7589 36.9327 37.9464 36.1827 38.3214 35.5094C38.7006 34.8361 39.229 34.3034 39.9066 33.9114C40.5884 33.5151 41.3874 33.3212 42.3036 33.3297ZM42.31 34.9917C41.8114 34.9917 41.3619 35.1152 40.9613 35.3624C40.565 35.6053 40.2518 35.9355 40.0217 36.3532C39.7915 36.7665 39.6765 37.2267 39.6765 37.7338C39.6765 38.2409 39.7873 38.7012 40.0089 39.1145C40.2347 39.5236 40.5415 39.8496 40.9293 40.0925C41.3214 40.3311 41.7688 40.4505 42.2717 40.4505C42.6467 40.4505 42.9961 40.378 43.32 40.2331C43.6438 40.0882 43.9272 39.888 44.1701 39.6323C44.413 39.3723 44.6026 39.0783 44.739 38.7502C44.8754 38.4221 44.9435 38.0769 44.9435 37.7147C44.9435 37.2331 44.8285 36.7857 44.5984 36.3723C44.3725 35.959 44.0614 35.6266 43.6651 35.3752C43.2688 35.1195 42.8171 34.9917 42.31 34.9917ZM53.8173 46.7786C52.9011 46.7786 52.0914 46.6209 51.3883 46.3056C50.6895 45.9902 50.1419 45.5556 49.7456 45.0016C49.3493 44.4476 49.1532 43.8169 49.1575 43.1096C49.1532 42.5556 49.2662 42.0463 49.4963 41.5819C49.7306 41.1131 50.0481 40.7232 50.4487 40.4121C50.8493 40.0968 51.2967 39.8965 51.791 39.8113V39.7346C51.139 39.5769 50.617 39.2275 50.225 38.6863C49.8329 38.1451 49.639 37.5229 49.6433 36.8198C49.639 36.1507 49.8159 35.5542 50.1738 35.03C50.536 34.5016 51.0325 34.0861 51.6632 33.7836C52.2939 33.481 53.0119 33.3297 53.8173 33.3297C54.6142 33.3297 55.3258 33.4831 55.9522 33.7899C56.5829 34.0925 57.0794 34.508 57.4416 35.0364C57.8038 35.5605 57.987 36.155 57.9913 36.8198C57.987 37.5229 57.7868 38.1451 57.3904 38.6863C56.9941 39.2275 56.4785 39.5769 55.8436 39.7346V39.8113C56.3336 39.8965 56.7747 40.0968 57.1667 40.4121C57.563 40.7232 57.8784 41.1131 58.1127 41.5819C58.3514 42.0463 58.4728 42.5556 58.4771 43.1096C58.4728 43.8169 58.2725 44.4476 57.8762 45.0016C57.4799 45.5556 56.9302 45.9902 56.2271 46.3056C55.5282 46.6209 54.725 46.7786 53.8173 46.7786ZM53.8173 45.1614C54.3585 45.1614 54.8272 45.0719 55.2235 44.8929C55.6199 44.7097 55.9267 44.4561 56.144 44.1323C56.3613 43.8042 56.4721 43.4206 56.4764 42.9817C56.4721 42.5257 56.3528 42.123 56.1184 41.7736C55.8883 41.4242 55.5751 41.1493 55.1788 40.949C54.7825 40.7488 54.3287 40.6486 53.8173 40.6486C53.3017 40.6486 52.8436 40.7488 52.443 40.949C52.0424 41.1493 51.7271 41.4242 51.497 41.7736C51.2669 42.123 51.1539 42.5257 51.1582 42.9817C51.1539 43.4206 51.2583 43.8042 51.4714 44.1323C51.6887 44.4561 51.9977 44.7097 52.3983 44.8929C52.7988 45.0719 53.2718 45.1614 53.8173 45.1614ZM53.8173 39.0698C54.252 39.0698 54.6376 38.9824 54.9743 38.8077C55.3109 38.633 55.5751 38.3901 55.7669 38.079C55.9629 37.7679 56.063 37.4036 56.0673 36.986C56.063 36.5769 55.965 36.2189 55.7733 35.9121C55.5858 35.6053 55.3237 35.3688 54.987 35.2026C54.6504 35.0321 54.2605 34.9469 53.8173 34.9469C53.3656 34.9469 52.9693 35.0321 52.6284 35.2026C52.2917 35.3688 52.0297 35.6053 51.8422 35.9121C51.6547 36.2189 51.563 36.5769 51.5673 36.986C51.563 37.4036 51.6568 37.7679 51.8485 38.079C52.0403 38.3901 52.3045 38.633 52.6412 38.8077C52.9821 38.9824 53.3741 39.0698 53.8173 39.0698Z" fill="#252B37"/>
<path d="M27.6 82H22.8C20.149 82 18 84.149 18 86.8C18 89.451 20.149 91.6 22.8 91.6H27.6C30.251 91.6 32.4 89.451 32.4 86.8C32.4 84.149 30.251 82 27.6 82Z" fill="#387AD2"/>
<path d="M73.2004 82H43.2004C40.5494 82 38.4004 84.149 38.4004 86.8C38.4004 89.451 40.5494 91.6 43.2004 91.6H73.2004C75.8514 91.6 78.0004 89.451 78.0004 86.8C78.0004 84.149 75.8514 82 73.2004 82Z" fill="#0041D4"/>
</svg>
