<svg width="96" height="100" viewBox="0 0 96 100" fill="none" xmlns="http://www.w3.org/2000/svg">
<path d="M22.2129 21.3333H65.0527C68.2588 21.3334 70.8994 24.0711 70.8994 27.5002V80.8333C70.8994 84.2624 68.2588 87.0001 65.0527 87.0002H22.2129C19.0068 87.0002 16.3662 84.2625 16.3662 80.8333V27.5002C16.3662 24.071 19.0068 21.3333 22.2129 21.3333Z" fill="white" stroke="#C4CEE3"/>
<path d="M15.8668 27.5C15.8668 23.818 15.0062 20.8333 18.5114 20.8333H65.053C68.5582 20.8333 71.3997 20.2762 71.3997 23.9581L71.3996 37.5H15.8668V27.5Z" fill="#00C950"/>
<path d="M60.132 50H27.1341C26.0229 50 25.1221 50.7773 25.1221 51.7361C25.1221 52.6949 26.0229 53.4722 27.1341 53.4722H60.132C61.2432 53.4722 62.144 52.6949 62.144 51.7361C62.144 50.7773 61.2432 50 60.132 50Z" fill="#E2E8F0"/>
<path d="M46.9386 58.3333H27.1054C26.01 58.3333 25.1221 59.1105 25.1221 60.0694C25.1221 61.0282 26.01 61.8055 27.1054 61.8055H46.9386C48.0339 61.8055 48.9219 61.0282 48.9219 60.0694C48.9219 59.1105 48.0339 58.3333 46.9386 58.3333Z" fill="#E2E8F0"/>
<path d="M53.5323 66.6667H27.1228C26.0178 66.6667 25.1221 67.444 25.1221 68.4029C25.1221 69.3617 26.0178 70.139 27.1228 70.139H53.5323C54.6372 70.139 55.533 69.3617 55.533 68.4029C55.533 67.444 54.6372 66.6667 53.5323 66.6667Z" fill="#E2E8F0"/>
<path d="M33.3202 33.3333C35.5109 33.3333 37.2868 31.4679 37.2868 29.1667C37.2868 26.8655 35.5109 25 33.3202 25C31.1294 25 29.3535 26.8655 29.3535 29.1667C29.3535 31.4679 31.1294 33.3333 33.3202 33.3333Z" fill="#009966"/>
<path d="M60.2931 27.5H44.4265C43.5502 27.5 42.8398 28.2462 42.8398 29.1667C42.8398 30.0871 43.5502 30.8333 44.4265 30.8333H60.2931C61.1693 30.8333 61.8797 30.0871 61.8797 29.1667C61.8797 28.2462 61.1693 27.5 60.2931 27.5Z" fill="#DBEAFE"/>
<path d="M70.2996 29.4C75.1045 29.4 78.9996 25.5049 78.9996 20.7C78.9996 15.8951 75.1045 12 70.2996 12C65.4947 12 61.5996 15.8951 61.5996 20.7C61.5996 25.5049 65.4947 29.4 70.2996 29.4Z" fill="#009966"/>
<path d="M67.4004 20.6999L69.5754 22.8749L73.2004 18.5249" fill="#009966"/>
<path d="M67.4004 20.6999L69.5754 22.8749L73.2004 18.5249" stroke="white" stroke-width="1.8125" stroke-linecap="round" stroke-linejoin="round"/>
</svg>
