<svg width="48" height="48" viewBox="0 0 48 48" fill="none" xmlns="http://www.w3.org/2000/svg">
<mask id="mask0_640_6885" style="mask-type:alpha" maskUnits="userSpaceOnUse" x="0" y="0" width="48" height="48">
<rect width="48" height="48" fill="url(#paint0_linear_640_6885)"/>
</mask>
<g mask="url(#mask0_640_6885)">
<circle cx="24" cy="24" r="23.5" fill="#F9F5FF" stroke="#E9D7FE"/>
</g>
<rect x="8" y="8" width="32" height="32" rx="16" fill="#0148D4"/>
<path d="M15.666 24L23.7012 28.0176C23.8105 28.0722 23.8652 28.0996 23.9225 28.1103C23.9733 28.1198 24.0254 28.1198 24.0762 28.1103C24.1335 28.0996 24.1882 28.0722 24.2975 28.0176L32.3327 24M15.666 28.1666L23.7012 32.1842C23.8105 32.2389 23.8652 32.2662 23.9225 32.277C23.9733 32.2865 24.0254 32.2865 24.0762 32.277C24.1335 32.2662 24.1882 32.2389 24.2975 32.1842L32.3327 28.1666M15.666 19.8333L23.7012 15.8157C23.8105 15.7611 23.8652 15.7337 23.9225 15.723C23.9733 15.7134 24.0254 15.7134 24.0762 15.723C24.1335 15.7337 24.1882 15.7611 24.2975 15.8157L32.3327 19.8333L24.2975 23.8509C24.1882 23.9056 24.1335 23.9329 24.0762 23.9436C24.0254 23.9532 23.9733 23.9532 23.9225 23.9436C23.8652 23.9329 23.8105 23.9056 23.7012 23.8509L15.666 19.8333Z" stroke="white" stroke-width="1.336" stroke-linecap="round" stroke-linejoin="round"/>
<defs>
<linearGradient id="paint0_linear_640_6885" x1="24" y1="0" x2="24" y2="48" gradientUnits="userSpaceOnUse">
<stop/>
<stop offset="1" stop-opacity="0"/>
</linearGradient>
</defs>
</svg>
